<svg id="Artwork" xmlns="http://www.w3.org/2000/svg" viewBox="0 0 1156.18 207.34"><defs><style>.cls-1{fill:#ff6e0c;}.cls-2{fill:#f20c90;}</style></defs><title>180817_1DB005_Primary_Logo_RGB</title><path class="cls-1" d="M381.91,602.66V477.34c0-21.36,15.66-37,37-37h44.15c58.39,0,105.09,38.45,105.09,99.68s-46.71,99.68-105.09,99.68H418.93C397.57,639.68,381.91,624,381.91,602.66Zm83.16-26.77c21.36,0,37-13.67,37-35.89s-15.66-35.89-37-35.89H448v71.77Z" transform="translate(-381.91 -436.33)"/><path class="cls-1" d="M585.26,558.23V469.94c0-19.37,14-33.61,33-33.61s33,14.24,33,33.61v86c0,13.1,9.68,22.21,21.08,22.21s21.08-9.11,21.08-22.21v-86c0-19.37,14-33.61,33-33.61s33,14.24,33,33.61v88.29c0,49.27-34.75,85.44-87.15,85.44S585.26,607.5,585.26,558.23Z" transform="translate(-381.91 -436.33)"/><path class="cls-1" d="M782.35,606.36v-139c0-18.23,14-31,31.9-31,14,0,23.07,6.27,30.76,16.52l38.16,51.27a310.26,310.26,0,0,1,20.51,30.19V473.36c0-21.65,11.39-37,33-37s33,15.38,33,37V612.63c0,18.23-14,31-31.61,31-14.24,0-23.07-6.26-31-16.52l-40.44-51.27c-6-7.69-12.82-17.94-18.23-26.49v57c0,21.93-11.39,37.31-33,37.31S782.35,628.29,782.35,606.36Z" transform="translate(-381.91 -436.33)"/><path class="cls-1" d="M1099.06,628.86l-26.2-31.9c-6.27-7.69-8.83-10.82-14.24-18.23v31.33c0,19.65-13.67,33.61-33,33.61s-33-14-33-33.61V469.94c0-19.65,13.67-33.61,33-33.61s33,14,33,33.61v30.19c5.13-7.41,8-11.11,14.24-19.08L1095.65,452c30.19-38.45,83.73,6.55,51.27,44.43l-36.46,42.72,39.3,44.43C1180.8,618.61,1130.68,667.59,1099.06,628.86Z" transform="translate(-381.91 -436.33)"/><path class="cls-1" d="M1180.23,610.06V469.94c0-19.65,13.67-33.61,33-33.61s33,14,33,33.61V610.06c0,19.65-13.67,33.61-33,33.61S1180.23,629.71,1180.23,610.06Z" transform="translate(-381.91 -436.33)"/><path class="cls-1" d="M1269.09,606.36v-139c0-18.23,14-31,31.9-31,14,0,23.07,6.27,30.76,16.52l38.16,51.27a310.26,310.26,0,0,1,20.51,30.19V473.36c0-21.65,11.39-37,33-37s33,15.38,33,37V612.63c0,18.23-14,31-31.61,31-14.24,0-23.07-6.26-31-16.52l-40.44-51.27c-6-7.69-12.82-17.94-18.23-26.49v57c0,21.93-11.39,37.31-33,37.31S1269.09,628.29,1269.09,606.36Z" transform="translate(-381.91 -436.33)"/><path class="cls-2" d="M1511.77,436.71c11.45,1.5,23.49,9.48,25.9,23.73,1.32,7.8-.52,18-4,30.34-3.38,11.88-6.83,22.82-14.41,29.46a24.17,24.17,0,0,1-19.18,5.71l-.28,0a24.17,24.17,0,0,1-17-10.52c-5.58-8.38-6.05-19.85-6.21-32.2-.16-12.86.72-23.16,4-30.34,6-13.12,19.75-17.68,31.2-16.14" transform="translate(-381.91 -436.33)"/><path class="cls-1" d="M1493.47,629.17a12.85,12.85,0,1,1-12.84-12.5A12.67,12.67,0,0,1,1493.47,629.17Zm-3.78,0a9.07,9.07,0,1,0-9.07,9.07A9.06,9.06,0,0,0,1489.7,629.17Zm-4.36,3.13a2.3,2.3,0,0,1,.55,1.34,1.77,1.77,0,0,1-1.85,1.85,1.85,1.85,0,0,1-1.51-.79l-2.47-3.33h-.48v2.23a1.81,1.81,0,0,1-1.85,1.89,1.79,1.79,0,0,1-1.85-1.89v-8.86a1.82,1.82,0,0,1,1.89-1.89h3.71a4.3,4.3,0,0,1,2.61,7.69Zm-5.77-3.95h1.06a1.24,1.24,0,1,0,0-2.47h-1.06Z" transform="translate(-381.91 -436.33)"/></svg>